<?xml version="1.0" encoding="UTF-8" standalone="no"?>
<svg
   version="1.1"
   id="Layer_1"
   x="0px"
   y="0px"
   width="347.73471"
   height="719.99811"
   viewBox="0 0 347.73471 719.99811"
   enable-background="new 0 0 612 792"
   xml:space="preserve"
   xmlns="http://www.w3.org/2000/svg"
   xmlns:svg="http://www.w3.org/2000/svg"><defs
   id="defs14" />
<path
   fill="#ffffff"
   fill-rule="nonzero"
   clip-rule="evenodd"
   stroke-width="2.9999"
   stroke-linecap="round"
   stroke-linejoin="round"
   stroke-miterlimit="22.9256"
   d="m 20.699732,683.57693 c 15.381,-10.12 38.049,-16.597 59.502,-33.192 21.453998,-16.596 41.692998,-43.312 52.216998,-73.266 10.524,-29.953 11.334,-63.146 0.405,-102.005 -10.929,-38.858 -33.596998,-83.385 -49.787998,-125.482 -16.191,-42.097 -25.906,-81.765 -31.168,-122.243 -5.262,-40.479 -6.071,-81.767 10.524,-121.435 16.596,-39.669002 50.597998,-77.718002 95.628998,-94.921002 45.032,-17.2030002 101.095,-13.5610002 136.311,5.87 35.216,19.429 49.586,54.645 52.723,77.919 3.137,23.274002 -4.959,34.609002 -16.495,39.466002 -11.536,4.858 -26.513,3.239 -41.489,-6.476 -14.977,-9.715 -29.954,-27.526 -47.968,-36.937002 -18.012,-9.411 -39.061,-10.423 -58.49,-3.542 -19.429,6.881 -37.24,21.656002 -49.788,42.400002 -12.548,20.745 -19.834,47.461 -13.763,87.939 6.072,40.478 25.501,94.718 42.097,143.291 16.596,48.574 30.359,91.481 34.811,131.555 4.453,40.073 -0.404,77.313 -14.167,111.314 -13.763,34.001 -36.43,64.765 -62.336,83.789 -25.905998,19.025 -55.049998,26.312 -77.312998,29.954 -22.263,3.644 -37.6450003,3.644 -41.28800031,-3.238 -3.64399999,-6.878 4.45200001,-20.641 19.83400031,-30.76 z"
   id="path9" />
</svg>
